<?xml version="1.0" encoding="iso-8859-1"?>
<!-- Uploaded to: SVG Repo, www.svgrepo.com, Generator: SVG Repo Mixer Tools -->
<svg version="1.1" id="Layer_1" xmlns="http://www.w3.org/2000/svg" xmlns:xlink="http://www.w3.org/1999/xlink" 
	 viewBox="0 0 512 512" xml:space="preserve">
<path style="fill:#F7D04A;" d="M253.889,20.586c-122.294,0-221.879,97.178-225.78,218.524h451.561
	C475.767,117.763,376.183,20.586,253.889,20.586z"/>
<path style="fill:#F3B41B;" d="M285.029,22.732c-10.181-1.404-20.573-2.146-31.14-2.146c-122.294,0-221.879,97.178-225.78,218.524
	h62.28C93.954,128.248,177.385,37.577,285.029,22.732z"/>
<g>
	<path style="fill:#F7D04A;" d="M457.837,247.555H54.163c56.945,40.547,126.605,64.396,201.837,64.396
		S400.892,288.102,457.837,247.555z"/>
	<rect x="227.497" y="7.918" style="fill:#F7D04A;" width="57.006" height="240.693"/>
	<rect x="11.085" y="204.272" style="fill:#F7D04A;" width="489.831" height="44.338"/>
</g>
<rect x="11.085" y="204.272" style="fill:#F3B41B;" width="152.016" height="44.338"/>
<rect x="366.318" y="204.272" style="fill:#FEE7BE;" width="58.59" height="44.338"/>
<path style="fill:#EB6836;" d="M451.299,347.843H60.701c-8.745,0-15.835,7.09-15.835,15.835v124.569
	c0,8.745,7.09,15.835,15.835,15.835h83.398c52.473,0,95.01-42.537,95.01-95.01v-27.447h33.781v27.447
	c0,52.473,42.537,95.01,95.01,95.01h83.398c8.745,0,15.835-7.09,15.835-15.835V363.678
	C467.134,354.933,460.044,347.843,451.299,347.843z"/>
<path style="fill:#D4F2E8;" d="M76.536,472.412v-92.899h130.903v29.559c0,34.926-28.414,63.34-63.34,63.34H76.536z"/>
<g>
	<polygon style="fill:#FFFFFF;" points="130.024,379.513 76.536,433.001 76.536,462.56 159.582,379.513 	"/>
	<polygon style="fill:#FFFFFF;" points="177.88,379.513 84.981,472.412 108.206,472.412 201.105,379.513 	"/>
</g>
<path style="fill:#D4F2E8;" d="M435.464,472.412v-92.899H304.561v29.559c0,34.982,28.358,63.34,63.34,63.34H435.464z"/>
<g>
	<path style="fill:#FFFFFF;" d="M381.097,379.513l-65.399,65.399c5.787,8.4,13.546,15.34,22.615,20.14l85.539-85.539H381.097z"/>
	<path style="fill:#FFFFFF;" d="M432.297,379.513l-88.232,88.232c7.21,2.931,15.074,4.589,23.321,4.654l68.078-68.078v-24.808
		H432.297z"/>
</g>
<path d="M500.915,196.355h-18.609c-20.311-92.916-96.02-164.937-189.886-180.513V7.918c0-4.374-3.544-7.918-7.918-7.918h-57.006
	c-4.374,0-7.918,3.544-7.918,7.918v7.26c-47.023,6.897-90.202,27.681-125.197,60.347c-35.033,32.701-58.787,74.39-68.916,120.83
	H11.085c-4.374,0-7.918,3.544-7.918,7.918v44.338c0,4.374,3.544,7.918,7.918,7.918h42.173c0.227,0.197,0.462,0.387,0.716,0.562
	c1.652,1.14,3.316,2.267,4.988,3.378c58.439,38.86,126.573,59.4,197.039,59.4c70.89,0,139.368-20.769,198.03-60.063
	c1.508-1.009,3.007-2.03,4.496-3.06c0.098-0.068,0.187-0.145,0.282-0.216h42.108c4.374,0,7.918-3.544,7.918-7.918v-44.338
	C508.833,199.899,505.289,196.355,500.915,196.355z M466.067,196.355H292.421V31.903
	C377.583,47.104,446.255,112.226,466.067,196.355z M276.586,15.835v180.52h-41.171V15.835H276.586z M256,304.033
	c-61.501,0-121.135-16.38-173.548-47.505h347.111C377.148,287.66,317.528,304.033,256,304.033z M492.998,240.693H19.002V212.19
	h144.099c4.374,0,7.918-3.544,7.918-7.918s-3.544-7.918-7.918-7.918H41.702C61.939,110.05,132.004,44.982,219.579,31.192v165.163
	h-14.252c-4.374,0-7.918,3.544-7.918,7.918s3.544,7.918,7.918,7.918h287.67V240.693z"/>
<path d="M451.299,339.926h-34.837c-4.374,0-7.918,3.544-7.918,7.918c0,4.374,3.544,7.918,7.918,7.918h34.837
	c4.366,0,7.918,3.551,7.918,7.918v124.569c0,4.366-3.551,7.918-7.918,7.918h-83.398c-48.022,0-87.093-39.07-87.093-87.093v-27.447
	c0-4.374-3.544-7.918-7.918-7.918h-33.781c-4.374,0-7.918,3.544-7.918,7.918v27.447c0,48.022-39.07,87.093-87.093,87.093H60.701
	c-4.366,0-7.918-3.551-7.918-7.918V363.678c0-4.366,3.551-7.918,7.918-7.918h313.534c4.374,0,7.918-3.544,7.918-7.918
	c0-4.374-3.544-7.918-7.918-7.918H60.701c-13.097,0-23.753,10.656-23.753,23.753v124.569c0,13.097,10.656,23.753,23.753,23.753
	h83.398c56.755,0,102.928-46.173,102.928-102.928v-19.53h17.946v19.53c0,56.755,46.173,102.928,102.928,102.928h83.398
	c13.097,0,23.753-10.656,23.753-23.753V363.678C475.052,350.582,464.396,339.926,451.299,339.926z"/>
<path d="M76.536,371.596c-4.374,0-7.918,3.544-7.918,7.918v92.899c0,4.374,3.544,7.918,7.918,7.918h67.563
	c39.292,0,71.258-31.966,71.258-71.258v-29.559c0-4.374-3.544-7.918-7.918-7.918H76.536z M199.522,409.072
	c0,30.56-24.863,55.423-55.423,55.423H84.454v-77.064h115.068V409.072z"/>
<path d="M296.643,379.513v29.559c0,39.292,31.966,71.258,71.258,71.258h67.563c4.374,0,7.918-3.544,7.918-7.918v-92.899
	c0-4.374-3.544-7.918-7.918-7.918H304.561C300.187,371.596,296.643,375.14,296.643,379.513z M312.478,387.431h115.068v77.064
	h-59.645c-30.56,0-55.423-24.863-55.423-55.423V387.431z"/>
</svg>