<?xml version="1.0" encoding="iso-8859-1"?>
<!-- Uploaded to: SVG Repo, www.svgrepo.com, Generator: SVG Repo Mixer Tools -->
<svg height="800px" width="800px" version="1.1" id="Layer_1" xmlns="http://www.w3.org/2000/svg" xmlns:xlink="http://www.w3.org/1999/xlink" 
	 viewBox="0 0 512.077 512.077" xml:space="preserve">
<g transform="translate(1 1)">
	<g>
		<path style="fill:#FFDD09;" d="M287.504,378.772c-17.92,0-33.28-13.653-34.133-31.573l-6.827-78.507c0-2.56,0.853-5.12,2.56-6.827
			s4.267-2.56,5.973-2.56h85.333c2.56,0,5.12,1.707,6.827,3.413c1.707,2.56,1.707,5.12,0.853,7.68l-28.16,84.48
			C315.664,369.385,302.01,378.772,287.504,378.772z M264.464,276.372l5.973,69.12c0.853,9.387,8.533,16.213,17.067,16.213
			c7.68,0,14.507-5.12,16.213-11.947l24.747-73.387H264.464z"/>
		<path style="fill:#FFDD09;" d="M417.21,276.372H118.544c-5.12,0-8.533-3.413-8.533-8.533c0-5.12,3.413-8.533,8.533-8.533H417.21
			c5.12,0,8.533,3.413,8.533,8.533C425.744,272.958,422.33,276.372,417.21,276.372z"/>
		<path style="fill:#FFDD09;" d="M417.21,276.372c-1.707,0-2.56,0-4.267-0.853c-4.267-2.56-5.973-7.68-3.413-11.947l51.2-93.867
			c2.56-4.267,7.68-5.12,11.947-3.413c4.267,2.56,5.12,7.68,3.413,11.947l-51.2,93.867
			C423.184,274.665,420.624,276.372,417.21,276.372z"/>
		<path style="fill:#FFDD09;" d="M502.544,182.505H468.41c-5.12,0-8.533-3.413-8.533-8.533s3.413-8.533,8.533-8.533h34.133
			c5.12,0,8.533,3.413,8.533,8.533S507.664,182.505,502.544,182.505z"/>
		<path style="fill:#FFDD09;" d="M118.544,344.638c-5.12,0-8.533-3.413-8.533-8.533v-68.267c0-5.12,3.413-8.533,8.533-8.533
			s8.533,3.413,8.533,8.533v68.267C127.077,341.225,123.664,344.638,118.544,344.638z"/>
		<path style="fill:#FFDD09;" d="M144.144,327.572c0,18.773-15.36,34.133-34.133,34.133s-34.133-15.36-34.133-34.133
			c0-18.773,15.36-34.133,34.133-34.133S144.144,308.798,144.144,327.572"/>
		<polygon style="fill:#FFDD09;" points="340.41,259.305 110.01,259.305 7.61,139.838 391.61,156.905 		"/>
	</g>
	<polygon style="fill:#FD9808;" points="366.01,156.905 314.81,259.305 340.41,259.305 391.61,156.905 	"/>
	<polygon style="fill:#FFFFFF;" points="41.744,148.372 388.197,163.732 391.61,156.905 7.61,139.838 110.01,259.305 
		136.464,259.305 	"/>
	<path d="M110.01,370.238c-23.893,0-42.667-18.773-42.667-42.667c0-23.893,18.773-42.667,42.667-42.667s42.667,18.773,42.667,42.667
		C152.677,351.465,133.904,370.238,110.01,370.238z M110.01,301.972c-14.507,0-25.6,11.093-25.6,25.6
		c0,14.507,11.093,25.6,25.6,25.6s25.6-11.093,25.6-25.6C135.61,313.065,124.517,301.972,110.01,301.972z"/>
	<path d="M278.97,370.238c-17.92,0-33.28-13.653-34.133-31.573l-6.827-78.507c0-2.56,0.853-5.12,2.56-6.827
		c1.707-1.707,4.267-2.56,5.973-2.56h85.333c2.56,0,5.12,1.707,6.827,3.413c1.707,2.56,1.707,5.12,0.853,7.68l-28.16,84.48
		C307.13,360.852,293.477,370.238,278.97,370.238z M255.93,267.839l5.973,69.12c0.853,9.387,8.533,16.213,17.067,16.213
		c7.68,0,14.507-5.12,16.213-11.947l24.747-73.387H255.93z"/>
	<path d="M340.41,267.839h-230.4c-2.56,0-5.12-0.853-6.827-2.56L0.784,145.812c-1.707-3.413-2.56-6.827-0.853-9.387
		c1.707-3.413,4.267-5.12,7.68-5.12l384,17.067c2.56,0,5.12,1.707,6.827,4.267c1.707,2.56,1.707,5.973,0,8.533l-51.2,102.4
		C346.384,266.132,343.824,267.839,340.41,267.839z M114.277,250.772H335.29l42.667-86.187l-350.72-15.36L114.277,250.772z"/>
	<path d="M408.677,267.839H110.01c-5.12,0-8.533-3.413-8.533-8.533c0-5.12,3.413-8.533,8.533-8.533h298.667
		c5.12,0,8.533,3.413,8.533,8.533C417.21,264.425,413.797,267.839,408.677,267.839z"/>
	<path d="M408.677,267.839c-1.707,0-2.56,0-4.267-0.853c-4.267-2.56-5.973-7.68-3.413-11.947l51.2-93.867
		c2.56-4.267,7.68-5.12,11.947-3.413c4.267,2.56,5.12,7.68,3.413,11.947l-51.2,93.867
		C414.65,266.132,412.09,267.839,408.677,267.839z"/>
	<path d="M502.544,173.972h-42.667c-5.12,0-8.533-3.413-8.533-8.533c0-5.12,3.413-8.533,8.533-8.533h42.667
		c5.12,0,8.533,3.413,8.533,8.533C511.077,170.558,507.664,173.972,502.544,173.972z"/>
	<path d="M110.01,336.105c-5.12,0-8.533-3.413-8.533-8.533v-68.267c0-5.12,3.413-8.533,8.533-8.533s8.533,3.413,8.533,8.533v68.267
		C118.544,332.692,115.13,336.105,110.01,336.105z"/>
	<path d="M51.13,199.572c-5.12,0-8.533-3.413-8.533-8.533s3.413-8.533,8.533-8.533h50.347l0,0c5.12,0,8.533,3.413,8.533,8.533
		s-3.413,8.533-8.533,8.533H51.13L51.13,199.572z"/>
	<path d="M80.997,233.705c-5.12,0-8.533-3.413-8.533-8.533c0-5.12,3.413-8.533,8.533-8.533h46.08l0,0
		c5.12,0,8.533,3.413,8.533,8.533c0,5.12-3.413,8.533-8.533,8.533H80.997L80.997,233.705z"/>
</g>
</svg>