<?xml version="1.0" encoding="iso-8859-1"?>
<!-- Uploaded to: SVG Repo, www.svgrepo.com, Generator: SVG Repo Mixer Tools -->
<svg height="800px" width="800px" version="1.1" id="Layer_1" xmlns="http://www.w3.org/2000/svg" xmlns:xlink="http://www.w3.org/1999/xlink" 
	 viewBox="0 0 512.336 512.336" xml:space="preserve">
<g transform="translate(1)">
	<g>
		<path style="fill:#FFDD09;" d="M287.763,431.276c-17.92,0-33.28-13.653-34.133-31.573l-6.827-78.507c0-2.56,0.853-5.12,2.56-6.827
			c1.707-1.707,4.267-2.56,5.973-2.56h85.333c2.56,0,5.12,1.707,6.827,3.413c1.707,2.56,1.707,5.12,0.853,7.68l-28.16,84.48
			C315.923,421.889,302.269,431.276,287.763,431.276z M264.723,328.876l5.973,69.12c0.853,9.387,8.533,16.213,17.067,16.213
			c7.68,0,14.507-5.12,16.213-11.947l24.747-73.387H264.723L264.723,328.876z"/>
		<path style="fill:#FFDD09;" d="M417.469,328.876H118.803c-5.12,0-8.533-3.413-8.533-8.533s3.413-8.533,8.533-8.533h298.667
			c5.12,0,8.533,3.413,8.533,8.533S422.589,328.876,417.469,328.876z"/>
		<path style="fill:#FFDD09;" d="M417.469,328.876c-1.707,0-2.56,0-4.267-0.853c-4.267-2.56-5.973-7.68-3.413-11.947l51.2-93.867
			c2.56-4.267,7.68-5.973,11.947-3.413s5.973,7.68,3.413,11.947l-51.2,93.867C423.443,327.169,420.883,328.876,417.469,328.876z"/>
		<path style="fill:#FFDD09;" d="M502.803,235.009h-34.133c-5.12,0-8.533-3.413-8.533-8.533c0-5.12,3.413-8.533,8.533-8.533h34.133
			c5.12,0,8.533,3.413,8.533,8.533C511.336,231.596,507.923,235.009,502.803,235.009z"/>
		<path style="fill:#FFDD09;" d="M118.803,397.143c-5.12,0-8.533-3.413-8.533-8.533v-68.267c0-5.12,3.413-8.533,8.533-8.533
			s8.533,3.413,8.533,8.533v68.267C127.336,393.729,123.923,397.143,118.803,397.143z"/>
		<path style="fill:#FFDD09;" d="M144.403,380.076c0,18.773-15.36,34.133-34.133,34.133s-34.133-15.36-34.133-34.133
			s15.36-34.133,34.133-34.133S144.403,361.303,144.403,380.076"/>
		<polygon style="fill:#FFDD09;" points="340.669,311.809 110.269,311.809 7.869,192.343 391.869,209.409 		"/>
	</g>
	<polygon style="fill:#FD9808;" points="366.269,209.409 315.069,311.809 340.669,311.809 391.869,209.409 	"/>
	<polygon style="fill:#FFFFFF;" points="42.003,200.876 388.456,216.236 391.869,209.409 7.869,192.343 110.269,311.809 
		136.723,311.809 	"/>
	<path style="fill:#FFDD09;" d="M144.403,198.316l152.747,6.827c1.707-34.987-0.853-57.173-7.68-78.507l5.12-25.6
		c1.707-7.68-5.973-13.653-12.8-10.24l-26.453,7.68h-68.267l-26.453-8.533c-6.827-2.56-14.507,3.413-12.8,10.24l5.12,25.6
		C146.963,146.263,143.549,165.889,144.403,198.316"/>
	<polygon style="fill:#1CD759;" points="263.869,203.436 263.869,149.676 178.536,149.676 178.536,200.023 	"/>
	<path d="M110.269,422.743c-23.893,0-42.667-18.773-42.667-42.667c0-23.893,18.773-42.667,42.667-42.667
		s42.667,18.773,42.667,42.667C152.936,403.969,134.163,422.743,110.269,422.743z M110.269,354.476c-14.507,0-25.6,11.093-25.6,25.6
		s11.093,25.6,25.6,25.6s25.6-11.093,25.6-25.6S124.776,354.476,110.269,354.476z"/>
	<path d="M279.229,422.743c-17.92,0-33.28-13.653-34.133-31.573l-6.827-78.507c0-2.56,0.853-5.12,2.56-6.827s4.267-2.56,5.973-2.56
		h85.333c2.56,0,5.12,1.707,6.827,3.413c1.707,2.56,1.707,5.12,0.853,7.68l-28.16,84.48
		C307.389,413.356,293.736,422.743,279.229,422.743z M256.189,320.343l5.973,69.12c0.853,9.387,8.533,16.213,17.067,16.213
		c7.68,0,14.507-5.12,16.213-11.947l24.747-73.387H256.189L256.189,320.343z"/>
	<path d="M340.669,320.343h-230.4c-2.56,0-5.12-0.853-6.827-2.56L1.043,198.316c-2.56-2.56-2.56-5.973-0.853-9.387
		c1.707-3.413,4.267-5.12,7.68-5.12l384,17.067c2.56,0,5.12,1.707,6.827,4.267c1.707,2.56,1.707,5.973,0,8.533l-51.2,102.4
		C346.643,318.636,344.083,320.343,340.669,320.343z M114.536,303.276h221.013l42.667-86.187l-350.72-15.36L114.536,303.276z"/>
	<path d="M408.936,320.343H110.269c-5.12,0-8.533-3.413-8.533-8.533s3.413-8.533,8.533-8.533h298.667
		c5.12,0,8.533,3.413,8.533,8.533S414.056,320.343,408.936,320.343z"/>
	<path d="M408.936,320.343c-1.707,0-2.56,0-4.267-0.853c-4.267-2.56-5.973-7.68-3.413-11.947l51.2-93.867
		c2.56-4.267,7.68-5.973,11.947-3.413c4.267,2.56,5.973,7.68,3.413,11.947l-51.2,93.867
		C414.909,318.636,412.349,320.343,408.936,320.343z"/>
	<path d="M502.803,226.476h-42.667c-5.12,0-8.533-3.413-8.533-8.533c0-5.12,3.413-8.533,8.533-8.533h42.667
		c5.12,0,8.533,3.413,8.533,8.533C511.336,223.063,507.923,226.476,502.803,226.476z"/>
	<path d="M110.269,388.609c-5.12,0-8.533-3.413-8.533-8.533v-68.267c0-5.12,3.413-8.533,8.533-8.533s8.533,3.413,8.533,8.533v68.267
		C118.803,385.196,115.389,388.609,110.269,388.609z"/>
	<path d="M51.389,252.076c-5.12,0-8.533-3.413-8.533-8.533c0-5.12,3.413-8.533,8.533-8.533h50.347l0,0
		c5.12,0,8.533,3.413,8.533,8.533c0,5.12-3.413,8.533-8.533,8.533H51.389L51.389,252.076z"/>
	<path d="M81.256,286.209c-5.12,0-8.533-3.413-8.533-8.533c0-5.12,3.413-8.533,8.533-8.533h46.08l0,0
		c5.12,0,8.533,3.413,8.533,8.533c0,5.12-3.413,8.533-8.533,8.533H81.256L81.256,286.209z"/>
	<path d="M263.869,211.969L263.869,211.969l-85.333-3.413c-4.267,0-8.533-4.267-8.533-8.533v-50.347c0-2.56,0.853-4.267,2.56-5.973
		c1.707-1.707,3.413-2.56,5.973-2.56h85.333c5.12,0,8.533,3.413,8.533,8.533v53.76c0,2.56-0.853,4.267-2.56,5.973
		S266.429,211.969,263.869,211.969z M187.069,191.489l68.267,3.413v-36.693h-68.267V191.489z"/>
	<path d="M297.149,213.676L297.149,213.676l-153.6-6.827c-4.267,0-7.68-3.413-8.533-8.533c-0.853-29.867,1.707-51.2,7.68-72.533
		l-4.267-23.04c-1.707-6.827,0.853-12.8,5.973-17.067c5.12-4.267,11.947-5.12,17.92-2.56l25.6,6.827h65.707l24.747-7.68
		c5.12-2.56,12.8-0.853,17.92,3.413c5.12,4.267,7.68,11.093,5.973,17.067l-4.267,23.04c6.827,23.893,9.387,46.933,7.68,79.36
		C305.683,210.263,302.269,213.676,297.149,213.676z M152.936,190.636l136.533,5.973c0.853-27.307-1.707-46.933-7.68-67.413
		c-0.853-1.707-0.853-3.413-0.853-4.267l5.12-25.6v-0.853c-0.853,0-0.853,0-0.853,0l-27.307,8.533c-0.853,0-1.707,0-2.56,0h-68.267
		c-0.853,0-1.707,0-2.56,0l-26.453-8.533c-0.853,0-0.853-0.853-1.707,0c-0.853,0,0,0.853,0,0.853l5.12,25.6c0,1.707,0,2.56,0,4.267
		C156.349,144.556,152.936,161.623,152.936,190.636z"/>
</g>
</svg>